<svg width="49" height="26" viewBox="0 0 49 26" fill="none" xmlns="http://www.w3.org/2000/svg">
<path d="M1.408 12.6C1.408 10.296 1.856 8.216 2.752 6.36C3.648 4.504 5.024 3.01067 6.88 1.88C8.75733 0.727999 10.976 0.151999 13.536 0.151999C14.8373 0.151999 16.1493 0.343999 17.472 0.727999C18.7947 1.112 19.8507 1.496 20.64 1.88L21.824 2.488C21.888 2.488 21.9947 2.43467 22.144 2.328C22.2933 2.22133 22.4107 2.168 22.496 2.168C22.6027 2.168 22.7093 2.21067 22.816 2.296C22.9227 2.38133 22.976 2.62667 22.976 3.032C22.9973 3.416 23.04 3.96 23.104 4.664C23.1893 5.34667 23.264 5.912 23.328 6.36C23.392 6.808 23.424 7.07467 23.424 7.16C23.424 7.544 23.296 7.736 23.04 7.736C22.848 7.736 22.6667 7.58667 22.496 7.288C20.4267 3.40533 17.44 1.464 13.536 1.464C10.8693 1.464 8.68267 2.31733 6.976 4.024C5.26933 5.73067 4.416 7.96 4.416 10.712C4.416 13.784 5.20533 16.408 6.784 18.584C7.59467 19.6933 8.704 20.568 10.112 21.208C11.52 21.848 13.1627 22.168 15.04 22.168C18.112 22.168 20.6933 20.568 22.784 17.368C22.8693 17.2187 23.0293 17.144 23.264 17.144C23.456 17.144 23.552 17.2827 23.552 17.56C23.552 17.816 23.5093 18.1467 23.424 18.552C23.36 18.936 23.2747 19.3733 23.168 19.864C23.0613 20.3333 22.9973 20.6213 22.976 20.728C22.9333 20.9627 22.7627 21.1547 22.464 21.304C21.312 21.8587 20.416 22.2747 19.776 22.552C18.0693 23.2773 16.2453 23.64 14.304 23.64C12.384 23.64 10.6773 23.416 9.184 22.968C7.69067 22.52 6.464 21.9333 5.504 21.208C4.56533 20.4827 3.776 19.6293 3.136 18.648C1.984 16.92 1.408 14.904 1.408 12.6Z" fill="black"/>
<path d="M29.776 9.304L29.744 3.896C29.744 3.10667 29.584 2.50933 29.264 2.104C28.944 1.67733 28.5813 1.44267 28.176 1.4C27.792 1.336 27.44 1.26133 27.12 1.176C26.8 1.09067 26.64 0.941332 26.64 0.727999C26.64 0.386666 26.9493 0.216 27.568 0.216H32.88L36.08 0.119999C38 0.119999 39.6427 0.610666 41.008 1.592C42.3733 2.552 43.056 3.85333 43.056 5.496C43.056 6.584 42.8427 7.544 42.416 8.376C42.0107 9.18667 41.552 9.77333 41.04 10.136C40.5493 10.4987 40.0907 10.8187 39.664 11.096C39.2587 11.352 39.056 11.5227 39.056 11.608C39.056 11.864 39.952 13.2507 41.744 15.768C43.536 18.264 44.7627 19.864 45.424 20.568C46.2347 21.5707 47.216 22.072 48.368 22.072C48.6667 22.072 48.816 22.2 48.816 22.456C48.816 22.776 48.688 22.9893 48.432 23.096C48.176 23.2027 47.5253 23.256 46.48 23.256C45.456 23.256 44.528 23.0107 43.696 22.52C42.544 21.8587 40.6347 19.2987 37.968 14.84C36.944 13.176 36.1547 12.344 35.6 12.344H32.976C32.72 12.344 32.56 12.4507 32.496 12.664C32.4533 12.8773 32.432 13.5067 32.432 14.552C32.432 14.552 32.432 15.416 32.432 17.144L32.464 18.84C32.464 18.84 32.464 18.936 32.464 19.128C32.464 20.0027 32.6667 20.6853 33.072 21.176C33.4773 21.6453 33.9253 21.9227 34.416 22.008C34.928 22.072 35.3867 22.1573 35.792 22.264C36.1973 22.3493 36.4 22.4987 36.4 22.712C36.4 23.0533 36.208 23.224 35.824 23.224C35.824 23.224 34.2987 23.1493 31.248 23L27.728 23.128C27.28 23.128 27.056 22.9573 27.056 22.616C27.056 22.2533 27.504 22.0187 28.4 21.912C28.7413 21.8693 29.0507 21.6347 29.328 21.208C29.6053 20.7813 29.744 20.1733 29.744 19.384L29.776 9.304ZM32.432 5.848C32.432 8.04533 32.4427 9.41067 32.464 9.944C32.4853 10.456 32.56 10.7547 32.688 10.84C33.008 11.032 33.4667 11.128 34.064 11.128H35.312C37.1253 11.128 38.416 10.712 39.184 9.88C39.9733 9.048 40.368 7.98133 40.368 6.68C40.368 5.35733 39.8453 4.152 38.8 3.064C37.776 1.976 36.2187 1.432 34.128 1.432C33.3387 1.432 32.8587 1.64533 32.688 2.072C32.5173 2.47733 32.432 3.43733 32.432 4.952V5.848Z" fill="black"/>
</svg>
